<svg
    xmlns="http://www.w3.org/2000/svg"
    viewBox="0 0 1896 826"
    className="w-full h-auto"
  >
    <path
      className="fill-[#3382f1]"
      d="M336.91,314h34.52L441,477.13,510.64,314h34.52V509.65H519.48V345.34L450.74,509.65h-19.4L362.59,345.34V509.65H336.91Z"
    />
    <path
      className="fill-[#3382f1]"
      d="M569.68,438.33c0-44.5,28-74.17,69.61-74.17,19.39,0,39.65,10.84,50.77,26.82V367h22.83V509.65H690.06v-24c-11.12,16-31.38,26.81-50.77,26.81C597.64,512.5,569.68,482.84,569.68,438.33Zm120.38,0c0-32.52-19.39-54.2-48.49-54.2-29.38,0-49.07,21.68-49.07,54.2s19.69,54.21,49.07,54.21C670.67,492.54,690.06,470.85,690.06,438.33Z"
    />
    <path
      className="fill-[#3382f1]"
      d="M741.4,367h22.82V386.7c14.95-27.19,52.49-22.87,52.49-22.19v19.62H807c-25.67,0-42.79,16.83-42.79,42.22v83.3H741.4Z"
    />
    <path
      className="fill-[#3382f1]"
      d="M836.67,314H859.5v115L921.11,367h32l-59.63,59.05,67.33,83.58h-29.1L877.18,442l-17.68,17.4v50.21H836.67Z"
    />
    <path
      className="fill-[#338cf1]"
      d="M957.91,438.33c0-44.5,28.53-74.17,71.6-74.17s71.61,30.53,71.61,76.46l-2.29,2.28H981c1.14,29.67,20.54,49.64,48.49,49.64,21.12,0,39.37-12.56,45.65-31.38H1098c-9.13,30.8-36.52,51.34-68.47,51.34C986.44,512.5,957.91,482.84,957.91,438.33Zm119-15.4c-5.42-24.82-22.54-38.8-47.36-38.8s-41.93,14-47.35,38.8Z"
    />
    <path
      className="fill-[#3382f1]"
      d="M1125.64,473.14V387h-22.82V367h22.82V314h22.83V367h41.64v20h-41.64v86.15c0,11.69,7.41,19.4,18.25,19.4h24.82v17.11a111.61,111.61,0,0,1-23.39,2.85C1142.76,512.5,1125.64,496.81,1125.64,473.14Z"
    />
    <path className="fill-[#3382f1]" d="M1212.8,372.46H1247V509.65H1212.8Z" />
    <path
      className="fill-[#3382f1]"
      d="M1263.19,461.16h32.23c1.15,14.26,14.84,24,33.95,24s32-7.42,32-18.54c0-6.85-8.56-11.7-35.09-16.83-41.36-9.42-54.48-18.83-54.48-42.51,0-26.53,23.1-44.22,57.62-44.22,27.39,0,51.35,14.84,59.62,37.09l-31.38,7.7c-4.27-9.7-15.69-16.26-28.24-16.26-14,0-23.39,5.7-23.39,14,0,6,6.56,9.7,26.81,14.26,47.65,10,62.76,20.83,62.76,46.79,0,28.24-26.52,47.06-66.18,47.06C1290.86,513.64,1264.33,492.54,1263.19,461.16Z"
    />
    <path
      className="fill-[#3382f1]"
      d="M1404.47,438.33c0-45.07,29.67-75.31,74.17-75.31,16.83,0,35.37,7.7,46.22,19.4V367h34.23V509.65h-34.23v-15.4c-10.85,11.69-29.39,19.39-46.22,19.39C1434.14,513.64,1404.47,483.41,1404.47,438.33Zm120.39,0c0-27.1-17.12-45.07-42.79-45.07-26,0-43.37,18-43.37,45.07s17.41,45.08,43.37,45.08C1507.74,483.41,1524.86,465.44,1524.86,438.33Z"
    />
    <circle className="fill-[#3362f1]" cx="1229.92" cy="333.02" r="20.66" />
  </svg>